<svg width="58" height="12" viewBox="0 0 58 12" fill="none" xmlns="http://www.w3.org/2000/svg">
<path d="M8.60645 7.75977C8.50618 8.82161 8.11426 9.65104 7.43066 10.248C6.74707 10.8405 5.83789 11.1367 4.70312 11.1367C3.91016 11.1367 3.21061 10.9499 2.60449 10.5762C2.00293 10.1979 1.53809 9.66243 1.20996 8.96973C0.881836 8.27702 0.710938 7.47266 0.697266 6.55664V5.62695C0.697266 4.68815 0.863607 3.861 1.19629 3.14551C1.52897 2.43001 2.00521 1.87858 2.625 1.49121C3.24935 1.10384 3.9694 0.910156 4.78516 0.910156C5.88346 0.910156 6.76758 1.20866 7.4375 1.80566C8.10742 2.40267 8.49707 3.24577 8.60645 4.33496H6.88379C6.80176 3.61947 6.59212 3.10449 6.25488 2.79004C5.9222 2.47103 5.43229 2.31152 4.78516 2.31152C4.0332 2.31152 3.45443 2.58724 3.04883 3.13867C2.64779 3.68555 2.44271 4.48991 2.43359 5.55176V6.43359C2.43359 7.50911 2.625 8.32943 3.00781 8.89453C3.39518 9.45964 3.96029 9.74219 4.70312 9.74219C5.38216 9.74219 5.89258 9.58952 6.23438 9.28418C6.57617 8.97884 6.79264 8.4707 6.88379 7.75977H8.60645ZM9.96652 7.2334C9.96652 6.50879 10.1101 5.8571 10.3972 5.27832C10.6843 4.69499 11.0876 4.24837 11.6071 3.93848C12.1267 3.62402 12.7237 3.4668 13.3982 3.4668C14.3962 3.4668 15.2051 3.78809 15.8249 4.43066C16.4493 5.07324 16.7865 5.92546 16.8366 6.9873L16.8435 7.37695C16.8435 8.10612 16.7022 8.75781 16.4196 9.33203C16.1417 9.90625 15.7406 10.3506 15.2165 10.665C14.697 10.9795 14.0954 11.1367 13.4118 11.1367C12.3682 11.1367 11.532 10.7904 10.903 10.0977C10.2787 9.40039 9.96652 8.47298 9.96652 7.31543V7.2334ZM11.6277 7.37695C11.6277 8.13802 11.7849 8.73503 12.0993 9.16797C12.4138 9.59635 12.8513 9.81055 13.4118 9.81055C13.9724 9.81055 14.4076 9.5918 14.7175 9.1543C15.032 8.7168 15.1892 8.0765 15.1892 7.2334C15.1892 6.486 15.0274 5.89355 14.7038 5.45605C14.3848 5.01855 13.9496 4.7998 13.3982 4.7998C12.8558 4.7998 12.4252 5.01628 12.1062 5.44922C11.7872 5.8776 11.6277 6.52018 11.6277 7.37695ZM20.0698 3.60352L20.1176 4.45801C20.6645 3.7972 21.3823 3.4668 22.2709 3.4668C23.8113 3.4668 24.5952 4.34863 24.6225 6.1123V11H22.9614V6.20801C22.9614 5.73861 22.8588 5.39225 22.6537 5.16895C22.4532 4.94108 22.1228 4.82715 21.6625 4.82715C20.9926 4.82715 20.4936 5.13021 20.1655 5.73633V11H18.5043V3.60352H20.0698ZM28.6828 1.80566V3.60352H29.9884V4.83398H28.6828V8.96289C28.6828 9.24544 28.7375 9.45052 28.8468 9.57812C28.9608 9.70117 29.1613 9.7627 29.4484 9.7627C29.6398 9.7627 29.8335 9.73991 30.0295 9.69434V10.9795C29.6512 11.0843 29.2866 11.1367 28.9357 11.1367C27.6597 11.1367 27.0216 10.4326 27.0216 9.02441V4.83398H25.8048V3.60352H27.0216V1.80566H28.6828ZM35.9628 11C35.8899 10.8587 35.8261 10.6286 35.7714 10.3096C35.2427 10.861 34.5956 11.1367 33.83 11.1367C33.0871 11.1367 32.481 10.9248 32.0116 10.501C31.5422 10.0771 31.3075 9.55306 31.3075 8.92871C31.3075 8.1403 31.5992 7.53646 32.1825 7.11719C32.7704 6.69336 33.6089 6.48145 34.6981 6.48145H35.7167V5.99609C35.7167 5.61328 35.6096 5.30794 35.3954 5.08008C35.1812 4.84766 34.8554 4.73145 34.4179 4.73145C34.0396 4.73145 33.7297 4.82715 33.4882 5.01855C33.2466 5.2054 33.1259 5.44466 33.1259 5.73633H31.4647C31.4647 5.33073 31.5992 4.95247 31.868 4.60156C32.1369 4.24609 32.5015 3.9681 32.9618 3.76758C33.4266 3.56706 33.9439 3.4668 34.5136 3.4668C35.3794 3.4668 36.0699 3.68555 36.5848 4.12305C37.0998 4.55599 37.3641 5.16667 37.3778 5.95508V9.29102C37.3778 9.95638 37.4712 10.4873 37.6581 10.8838V11H35.9628ZM34.1376 9.80371C34.4657 9.80371 34.7733 9.72396 35.0604 9.56445C35.3521 9.40495 35.5708 9.19076 35.7167 8.92188V7.52734H34.8212C34.2059 7.52734 33.7434 7.63444 33.4335 7.84863C33.1236 8.06283 32.9686 8.36589 32.9686 8.75781C32.9686 9.07682 33.0735 9.33203 33.2831 9.52344C33.4973 9.71029 33.7821 9.80371 34.1376 9.80371ZM42.4361 9.81055C42.8508 9.81055 43.1949 9.68978 43.4684 9.44824C43.7418 9.20671 43.8876 8.9082 43.9059 8.55273H45.4713C45.4531 9.01302 45.3095 9.44368 45.0406 9.84473C44.7717 10.2412 44.4072 10.5557 43.9469 10.7881C43.4866 11.0205 42.9898 11.1367 42.4566 11.1367C41.4221 11.1367 40.6018 10.8018 39.9957 10.1318C39.3896 9.46191 39.0865 8.53678 39.0865 7.35645V7.18555C39.0865 6.0599 39.3873 5.15983 39.9889 4.48535C40.5904 3.80632 41.4107 3.4668 42.4498 3.4668C43.3294 3.4668 44.0449 3.72428 44.5963 4.23926C45.1523 4.74967 45.4439 5.42188 45.4713 6.25586H43.9059C43.8876 5.83203 43.7418 5.4834 43.4684 5.20996C43.1995 4.93652 42.8554 4.7998 42.4361 4.7998C41.8984 4.7998 41.4837 4.99577 41.192 5.3877C40.9003 5.77507 40.7522 6.36523 40.7477 7.1582V7.4248C40.7477 8.22689 40.8912 8.82617 41.1783 9.22266C41.47 9.61458 41.8893 9.81055 42.4361 9.81055ZM49.0872 1.80566V3.60352H50.3929V4.83398H49.0872V8.96289C49.0872 9.24544 49.1419 9.45052 49.2513 9.57812C49.3652 9.70117 49.5657 9.7627 49.8529 9.7627C50.0443 9.7627 50.2379 9.73991 50.4339 9.69434V10.9795C50.0557 11.0843 49.6911 11.1367 49.3402 11.1367C48.0641 11.1367 47.4261 10.4326 47.4261 9.02441V4.83398H46.2093V3.60352H47.4261V1.80566H49.0872ZM56.0938 8.99023C56.0938 8.69401 55.9707 8.46842 55.7246 8.31348C55.4831 8.15853 55.0798 8.02181 54.5147 7.90332C53.9496 7.78483 53.4779 7.63444 53.0996 7.45215C52.2702 7.05111 51.8555 6.47005 51.8555 5.70898C51.8555 5.07096 52.1244 4.53776 52.6621 4.10938C53.1999 3.68099 53.8835 3.4668 54.7129 3.4668C55.597 3.4668 56.3103 3.68555 56.8526 4.12305C57.3995 4.56055 57.6729 5.12793 57.6729 5.8252H56.0118C56.0118 5.50618 55.8933 5.24186 55.6563 5.03223C55.4193 4.81803 55.1049 4.71094 54.7129 4.71094C54.3483 4.71094 54.0498 4.79525 53.8174 4.96387C53.5896 5.13249 53.4756 5.35807 53.4756 5.64062C53.4756 5.89583 53.5827 6.09408 53.7969 6.23535C54.0111 6.37663 54.444 6.52018 55.0957 6.66602C55.7474 6.80729 56.2579 6.97819 56.627 7.17871C57.0007 7.37467 57.2764 7.61165 57.4541 7.88965C57.6364 8.16764 57.7276 8.50488 57.7276 8.90137C57.7276 9.56673 57.4519 10.1068 56.9004 10.5215C56.349 10.9316 55.6267 11.1367 54.7334 11.1367C54.1273 11.1367 53.5873 11.0273 53.1133 10.8086C52.6394 10.5898 52.2702 10.2891 52.0059 9.90625C51.7416 9.52344 51.6094 9.111 51.6094 8.66895H53.2227C53.2455 9.06087 53.3936 9.36393 53.667 9.57812C53.9405 9.78776 54.3028 9.89258 54.7539 9.89258C55.1914 9.89258 55.5241 9.81055 55.752 9.64648C55.9799 9.47786 56.0938 9.25911 56.0938 8.99023Z" fill="#212121"/>
</svg>
