<svg width="56" height="12" viewBox="0 0 56 12" fill="none" xmlns="http://www.w3.org/2000/svg">
<path d="M1.74121 7.30176V11H0.0117188V1.04688H3.81934C4.93132 1.04688 5.81315 1.33626 6.46484 1.91504C7.12109 2.49382 7.44922 3.25944 7.44922 4.21191C7.44922 5.18717 7.12793 5.94596 6.48535 6.48828C5.84733 7.0306 4.95182 7.30176 3.79883 7.30176H1.74121ZM1.74121 5.91406H3.81934C4.43457 5.91406 4.90397 5.77051 5.22754 5.4834C5.55111 5.19173 5.71289 4.77246 5.71289 4.22559C5.71289 3.68783 5.54883 3.25944 5.2207 2.94043C4.89258 2.61686 4.44141 2.45052 3.86719 2.44141H1.74121V5.91406ZM8.67941 7.2334C8.67941 6.50879 8.82297 5.8571 9.11008 5.27832C9.39719 4.69499 9.80051 4.24837 10.32 3.93848C10.8396 3.62402 11.4366 3.4668 12.1111 3.4668C13.1091 3.4668 13.918 3.78809 14.5378 4.43066C15.1622 5.07324 15.4994 5.92546 15.5495 6.9873L15.5564 7.37695C15.5564 8.10612 15.4151 8.75781 15.1325 9.33203C14.8545 9.90625 14.4535 10.3506 13.9294 10.665C13.4099 10.9795 12.8083 11.1367 12.1247 11.1367C11.0811 11.1367 10.2448 10.7904 9.61594 10.0977C8.99159 9.40039 8.67941 8.47298 8.67941 7.31543V7.2334ZM10.3405 7.37695C10.3405 8.13802 10.4978 8.73503 10.8122 9.16797C11.1267 9.59635 11.5642 9.81055 12.1247 9.81055C12.6853 9.81055 13.1205 9.5918 13.4304 9.1543C13.7448 8.7168 13.9021 8.0765 13.9021 7.2334C13.9021 6.486 13.7403 5.89355 13.4167 5.45605C13.0977 5.01855 12.6625 4.7998 12.1111 4.7998C11.5687 4.7998 11.1381 5.01628 10.8191 5.44922C10.5001 5.8776 10.3405 6.52018 10.3405 7.37695ZM21.1137 5.12109C20.895 5.08464 20.6694 5.06641 20.437 5.06641C19.6759 5.06641 19.1632 5.35807 18.8989 5.94141V11H17.2377V3.60352H18.8237L18.8647 4.43066C19.2657 3.78809 19.8217 3.4668 20.5327 3.4668C20.7696 3.4668 20.9656 3.4987 21.1205 3.5625L21.1137 5.12109ZM24.8664 1.80566V3.60352H26.172V4.83398H24.8664V8.96289C24.8664 9.24544 24.9211 9.45052 25.0304 9.57812C25.1444 9.70117 25.3449 9.7627 25.632 9.7627C25.8234 9.7627 26.0171 9.73991 26.213 9.69434V10.9795C25.8348 11.0843 25.4702 11.1367 25.1193 11.1367C23.8433 11.1367 23.2052 10.4326 23.2052 9.02441V4.83398H21.9884V3.60352H23.2052V1.80566H24.8664ZM28.3114 11V4.83398H27.1835V3.60352H28.3114V2.92676C28.3114 2.10645 28.5393 1.47298 28.995 1.02637C29.4507 0.579753 30.0888 0.356445 30.9091 0.356445C31.2007 0.356445 31.5106 0.397461 31.8388 0.479492L31.7977 1.77832C31.6154 1.74186 31.4035 1.72363 31.162 1.72363C30.369 1.72363 29.9725 2.13151 29.9725 2.94727V3.60352H31.4764V4.83398H29.9725V11H28.3114ZM32.6588 7.2334C32.6588 6.50879 32.8023 5.8571 33.0895 5.27832C33.3766 4.69499 33.7799 4.24837 34.2994 3.93848C34.8189 3.62402 35.416 3.4668 36.0904 3.4668C37.0885 3.4668 37.8974 3.78809 38.5172 4.43066C39.1415 5.07324 39.4788 5.92546 39.5289 6.9873L39.5357 7.37695C39.5357 8.10612 39.3945 8.75781 39.1119 9.33203C38.8339 9.90625 38.4329 10.3506 37.9088 10.665C37.3893 10.9795 36.7877 11.1367 36.1041 11.1367C35.0605 11.1367 34.2242 10.7904 33.5953 10.0977C32.971 9.40039 32.6588 8.47298 32.6588 7.31543V7.2334ZM34.3199 7.37695C34.3199 8.13802 34.4771 8.73503 34.7916 9.16797C35.1061 9.59635 35.5436 9.81055 36.1041 9.81055C36.6646 9.81055 37.0999 9.5918 37.4098 9.1543C37.7242 8.7168 37.8814 8.0765 37.8814 7.2334C37.8814 6.486 37.7197 5.89355 37.3961 5.45605C37.0771 5.01855 36.6419 4.7998 36.0904 4.7998C35.5481 4.7998 35.1174 5.01628 34.7984 5.44922C34.4794 5.8776 34.3199 6.52018 34.3199 7.37695ZM42.9876 11H41.3265V0.5H42.9876V11ZM46.8496 11H45.1885V3.60352H46.8496V11ZM45.086 1.68262C45.086 1.42741 45.1657 1.21549 45.3252 1.04688C45.4893 0.878255 45.7217 0.793945 46.0225 0.793945C46.3233 0.793945 46.5557 0.878255 46.7198 1.04688C46.8838 1.21549 46.9659 1.42741 46.9659 1.68262C46.9659 1.93327 46.8838 2.1429 46.7198 2.31152C46.5557 2.47559 46.3233 2.55762 46.0225 2.55762C45.7217 2.55762 45.4893 2.47559 45.3252 2.31152C45.1657 2.1429 45.086 1.93327 45.086 1.68262ZM48.6336 7.2334C48.6336 6.50879 48.7771 5.8571 49.0642 5.27832C49.3513 4.69499 49.7547 4.24837 50.2742 3.93848C50.7937 3.62402 51.3907 3.4668 52.0652 3.4668C53.0632 3.4668 53.8722 3.78809 54.492 4.43066C55.1163 5.07324 55.4535 5.92546 55.5037 6.9873L55.5105 7.37695C55.5105 8.10612 55.3692 8.75781 55.0867 9.33203C54.8087 9.90625 54.4076 10.3506 53.8836 10.665C53.364 10.9795 52.7625 11.1367 52.0789 11.1367C51.0352 11.1367 50.199 10.7904 49.5701 10.0977C48.9457 9.40039 48.6336 8.47298 48.6336 7.31543V7.2334ZM50.2947 7.37695C50.2947 8.13802 50.4519 8.73503 50.7664 9.16797C51.0808 9.59635 51.5183 9.81055 52.0789 9.81055C52.6394 9.81055 53.0746 9.5918 53.3845 9.1543C53.699 8.7168 53.8562 8.0765 53.8562 7.2334C53.8562 6.486 53.6944 5.89355 53.3709 5.45605C53.0519 5.01855 52.6166 4.7998 52.0652 4.7998C51.5229 4.7998 51.0922 5.01628 50.7732 5.44922C50.4542 5.8776 50.2947 6.52018 50.2947 7.37695Z" fill="#212121"/>
</svg>
