<svg width="42" height="12" viewBox="0 0 42 12" fill="none" xmlns="http://www.w3.org/2000/svg">
<path d="M6.24805 8.43652C6.24805 8.23145 6.21615 8.04915 6.15234 7.88965C6.0931 7.73014 5.986 7.58431 5.83105 7.45215C5.67611 7.31999 5.45736 7.19238 5.1748 7.06934C4.89681 6.94173 4.54134 6.81185 4.1084 6.67969C3.63444 6.53385 3.19694 6.37207 2.7959 6.19434C2.39941 6.01204 2.05306 5.80241 1.75684 5.56543C1.46061 5.32389 1.23047 5.04818 1.06641 4.73828C0.902344 4.42383 0.820312 4.06152 0.820312 3.65137C0.820312 3.24577 0.904622 2.87663 1.07324 2.54395C1.24642 2.21126 1.49023 1.92415 1.80469 1.68262C2.1237 1.43652 2.49967 1.2474 2.93262 1.11523C3.36556 0.978516 3.84408 0.910156 4.36816 0.910156C5.10645 0.910156 5.74219 1.04688 6.27539 1.32031C6.81315 1.59375 7.22559 1.96061 7.5127 2.4209C7.80436 2.88118 7.9502 3.38932 7.9502 3.94531H6.24805C6.24805 3.61719 6.17741 3.3278 6.03613 3.07715C5.89941 2.82194 5.68978 2.62142 5.40723 2.47559C5.12923 2.32975 4.77604 2.25684 4.34766 2.25684C3.94206 2.25684 3.60482 2.31836 3.33594 2.44141C3.06706 2.56445 2.86654 2.73079 2.73438 2.94043C2.60221 3.15007 2.53613 3.38704 2.53613 3.65137C2.53613 3.83822 2.57943 4.00911 2.66602 4.16406C2.7526 4.31445 2.88477 4.45573 3.0625 4.58789C3.24023 4.71549 3.46354 4.83626 3.73242 4.9502C4.0013 5.06413 4.31803 5.1735 4.68262 5.27832C5.23405 5.44238 5.71484 5.62467 6.125 5.8252C6.53516 6.02116 6.87695 6.24447 7.15039 6.49512C7.42383 6.74577 7.62891 7.0306 7.76562 7.34961C7.90234 7.66406 7.9707 8.02181 7.9707 8.42285C7.9707 8.84212 7.88639 9.22038 7.71777 9.55762C7.54915 9.8903 7.30762 10.1751 6.99316 10.4121C6.68327 10.6445 6.30957 10.8245 5.87207 10.9521C5.43913 11.0752 4.95605 11.1367 4.42285 11.1367C3.94434 11.1367 3.47266 11.0729 3.00781 10.9453C2.54753 10.8177 2.12826 10.624 1.75 10.3643C1.37174 10.0999 1.07096 9.77181 0.847656 9.37988C0.624349 8.9834 0.512695 8.52083 0.512695 7.99219H2.22852C2.22852 8.31576 2.2832 8.59147 2.39258 8.81934C2.50651 9.0472 2.66374 9.23405 2.86426 9.37988C3.06478 9.52116 3.2972 9.62598 3.56152 9.69434C3.8304 9.7627 4.11751 9.79688 4.42285 9.79688C4.82389 9.79688 5.15885 9.73991 5.42773 9.62598C5.70117 9.51204 5.90625 9.35254 6.04297 9.14746C6.17969 8.94238 6.24805 8.7054 6.24805 8.43652ZM12.9948 3.60352V4.80664H8.82492V3.60352H12.9948ZM10.028 1.79199H11.6755V8.95605C11.6755 9.18392 11.7074 9.35938 11.7712 9.48242C11.8396 9.60091 11.933 9.68066 12.0515 9.72168C12.17 9.7627 12.309 9.7832 12.4685 9.7832C12.5824 9.7832 12.6918 9.77637 12.7966 9.7627C12.9014 9.74902 12.9857 9.73535 13.0495 9.72168L13.0564 10.9795C12.9196 11.0205 12.7601 11.057 12.5779 11.0889C12.4001 11.1208 12.195 11.1367 11.9626 11.1367C11.5844 11.1367 11.2494 11.0706 10.9577 10.9385C10.6661 10.8018 10.4382 10.5807 10.2741 10.2754C10.1101 9.97005 10.028 9.56445 10.028 9.05859V1.79199ZM18.9965 9.25684V3.60352H20.6508V11H19.0922L18.9965 9.25684ZM19.2289 7.71875L19.7827 7.70508C19.7827 8.20182 19.728 8.65983 19.6186 9.0791C19.5092 9.49382 19.3406 9.85612 19.1127 10.166C18.8849 10.4714 18.5932 10.7106 18.2377 10.8838C17.8823 11.0524 17.4562 11.1367 16.9594 11.1367C16.5994 11.1367 16.269 11.0843 15.9682 10.9795C15.6674 10.8747 15.4077 10.7129 15.1889 10.4941C14.9747 10.2754 14.8084 9.99056 14.6899 9.63965C14.5714 9.28874 14.5121 8.86947 14.5121 8.38184V3.60352H16.1596V8.39551C16.1596 8.66439 16.1915 8.88997 16.2553 9.07227C16.3191 9.25 16.4057 9.39355 16.5151 9.50293C16.6245 9.6123 16.7521 9.68978 16.8979 9.73535C17.0437 9.78092 17.1987 9.80371 17.3627 9.80371C17.8321 9.80371 18.2013 9.71257 18.4702 9.53027C18.7436 9.34342 18.9373 9.09277 19.0512 8.77832C19.1697 8.46387 19.2289 8.11068 19.2289 7.71875ZM27.131 9.46875V0.5H28.7853V11H27.2882L27.131 9.46875ZM22.3185 7.38379V7.24023C22.3185 6.67969 22.3846 6.16927 22.5168 5.70898C22.6489 5.24414 22.8403 4.84538 23.091 4.5127C23.3416 4.17546 23.647 3.91797 24.007 3.74023C24.367 3.55794 24.7726 3.4668 25.2238 3.4668C25.6704 3.4668 26.0623 3.55339 26.3996 3.72656C26.7368 3.89974 27.0239 4.14811 27.2609 4.47168C27.4979 4.79069 27.687 5.1735 27.8283 5.62012C27.9696 6.06217 28.0698 6.55436 28.1291 7.09668V7.55469C28.0698 8.08333 27.9696 8.56641 27.8283 9.00391C27.687 9.44141 27.4979 9.81966 27.2609 10.1387C27.0239 10.4577 26.7345 10.7038 26.3927 10.877C26.0555 11.0501 25.6613 11.1367 25.2101 11.1367C24.7635 11.1367 24.3602 11.0433 24.0002 10.8564C23.6447 10.6696 23.3416 10.4076 23.091 10.0703C22.8403 9.73307 22.6489 9.33659 22.5168 8.88086C22.3846 8.42057 22.3185 7.92155 22.3185 7.38379ZM23.966 7.24023V7.38379C23.966 7.72103 23.9956 8.03548 24.0548 8.32715C24.1186 8.61882 24.2166 8.8763 24.3488 9.09961C24.481 9.31836 24.6518 9.49154 24.8615 9.61914C25.0757 9.74219 25.3309 9.80371 25.6271 9.80371C26.0008 9.80371 26.3084 9.72168 26.55 9.55762C26.7915 9.39355 26.9806 9.17253 27.1173 8.89453C27.2586 8.61198 27.3543 8.29753 27.4045 7.95117V6.71387C27.3771 6.44499 27.3201 6.19434 27.2336 5.96191C27.1515 5.72949 27.0399 5.52669 26.8986 5.35352C26.7573 5.17578 26.5819 5.03906 26.3722 4.94336C26.1671 4.8431 25.9233 4.79297 25.6408 4.79297C25.34 4.79297 25.0848 4.85677 24.8752 4.98438C24.6655 5.11198 24.4923 5.28743 24.3556 5.51074C24.2235 5.73405 24.1255 5.99382 24.0617 6.29004C23.9979 6.58626 23.966 6.90299 23.966 7.24023ZM32.5516 3.60352V11H30.8973V3.60352H32.5516ZM30.788 1.66211C30.788 1.41146 30.87 1.2041 31.0341 1.04004C31.2027 0.871419 31.4351 0.787109 31.7313 0.787109C32.023 0.787109 32.2531 0.871419 32.4218 1.04004C32.5904 1.2041 32.6747 1.41146 32.6747 1.66211C32.6747 1.9082 32.5904 2.11328 32.4218 2.27734C32.2531 2.44141 32.023 2.52344 31.7313 2.52344C31.4351 2.52344 31.2027 2.44141 31.0341 2.27734C30.87 2.11328 30.788 1.9082 30.788 1.66211ZM34.3219 7.38379V7.22656C34.3219 6.69336 34.3994 6.19889 34.5543 5.74316C34.7092 5.28288 34.9326 4.88411 35.2242 4.54688C35.5204 4.20508 35.8805 3.94076 36.3043 3.75391C36.7327 3.5625 37.2158 3.4668 37.7535 3.4668C38.2958 3.4668 38.7789 3.5625 39.2027 3.75391C39.6311 3.94076 39.9934 4.20508 40.2896 4.54688C40.5859 4.88411 40.8115 5.28288 40.9664 5.74316C41.1214 6.19889 41.1988 6.69336 41.1988 7.22656V7.38379C41.1988 7.91699 41.1214 8.41146 40.9664 8.86719C40.8115 9.32292 40.5859 9.72168 40.2896 10.0635C39.9934 10.4007 39.6334 10.665 39.2096 10.8564C38.7857 11.0433 38.3049 11.1367 37.7672 11.1367C37.2249 11.1367 36.7395 11.0433 36.3111 10.8564C35.8873 10.665 35.5273 10.4007 35.2311 10.0635C34.9348 9.72168 34.7092 9.32292 34.5543 8.86719C34.3994 8.41146 34.3219 7.91699 34.3219 7.38379ZM35.9693 7.22656V7.38379C35.9693 7.71647 36.0035 8.03092 36.0719 8.32715C36.1402 8.62337 36.2473 8.88314 36.3932 9.10645C36.539 9.32975 36.7258 9.50521 36.9537 9.63281C37.1816 9.76042 37.4527 9.82422 37.7672 9.82422C38.0725 9.82422 38.3369 9.76042 38.5602 9.63281C38.788 9.50521 38.9749 9.32975 39.1207 9.10645C39.2665 8.88314 39.3736 8.62337 39.442 8.32715C39.5149 8.03092 39.5514 7.71647 39.5514 7.38379V7.22656C39.5514 6.89844 39.5149 6.58854 39.442 6.29688C39.3736 6.00065 39.2643 5.73861 39.1139 5.51074C38.968 5.28288 38.7812 5.10514 38.5533 4.97754C38.33 4.84538 38.0634 4.7793 37.7535 4.7793C37.4436 4.7793 37.1747 4.84538 36.9469 4.97754C36.7236 5.10514 36.539 5.28288 36.3932 5.51074C36.2473 5.73861 36.1402 6.00065 36.0719 6.29688C36.0035 6.58854 35.9693 6.89844 35.9693 7.22656Z" fill="#2196F3"/>
</svg>
